<svg width="2538" height="649" viewBox="0 0 2538 649" fill="none" xmlns="http://www.w3.org/2000/svg">
<path opacity="0.986" fill-rule="evenodd" clip-rule="evenodd" d="M1205.46 0.336158C1323.82 -2.46681 1439.93 12.2591 1553.78 44.5138C1660.27 75.4743 1757.87 123.578 1846.56 188.827C1814.66 192.421 1782.69 195.086 1750.65 196.821C1686.56 159.583 1620.1 127.046 1551.25 99.2098C1433.65 54.1563 1311.93 35.3635 1186.11 42.8308C1065.63 49.5862 946.437 65.8553 828.539 91.6365C748.238 108.56 668.87 129.036 590.44 153.064C562.37 161.768 534.606 171.304 507.147 181.675C530.118 192.6 553.114 203.54 576.137 214.492C616.747 234.579 653.626 259.964 686.773 290.646C687.335 291.207 687.335 291.768 686.773 292.329C651.999 279.18 616.242 269.503 579.502 263.298C481.228 245.28 382.511 242.195 283.35 254.042C246.17 258.85 210.274 268.387 175.658 282.652C139.665 299.001 108.956 322.42 83.5314 352.916C61.4615 380.491 42.1107 409.943 25.4789 441.271C18.6826 455.147 11.6714 468.888 4.44531 482.503C5.66088 439.773 15.4766 399.104 33.8923 360.489C42.7106 341.724 52.3861 323.489 62.9186 305.793C54.6693 296.579 47.2375 286.762 40.623 276.341C30.7114 257.901 28.4678 238.547 33.8923 218.279C37.6568 204.321 42.0037 190.576 46.9331 177.047C56.6144 182.588 66.7105 187.497 77.2214 191.772C92.3361 197.011 107.901 199.676 123.916 199.767C161.515 197.356 198.675 191.886 235.394 183.358C326.49 162.333 417.075 139.332 507.147 114.356C636.836 80.561 767.805 52.7922 900.053 31.0501C1001.34 14.356 1103.14 4.11776 1205.46 0.336158Z" fill="#FE000A"/>
<path opacity="0.983" fill-rule="evenodd" clip-rule="evenodd" d="M1953.41 208.181C2050.47 205.187 2146.94 211.218 2242.83 226.273C2345.76 243.006 2441.68 278.348 2530.57 332.299C2483.18 332.863 2435.78 332.863 2388.39 332.299C2283.34 289.966 2174.24 265.003 2061.1 257.408C1978.62 252.167 1896.17 252.728 1813.75 259.091C1779.78 261.478 1745.85 264.282 1711.95 267.505C1623.91 276.728 1535.85 285.703 1447.77 294.433C1357.94 303.184 1267.92 306.55 1177.7 304.53C1095.24 302.25 1013.63 292.713 932.865 275.92C1026.8 282.086 1120.75 282.086 1214.71 275.92C1267.25 272.499 1319.69 268.012 1372.05 262.456C1494.24 248.254 1616.51 234.79 1738.87 222.065C1810.38 215.299 1881.9 210.671 1953.41 208.181Z" fill="#2B3449"/>
<path opacity="0.988" fill-rule="evenodd" clip-rule="evenodd" d="M127.702 357.123C192.206 357.123 256.708 357.123 321.211 357.123C314.402 378.395 306.269 399.155 296.812 419.392C255.589 420.091 214.363 420.511 173.135 420.655C160.816 424.559 152.262 432.553 147.474 444.637C129.866 488.915 112.338 533.227 94.89 577.59C135.272 578.289 175.656 578.709 216.043 578.852C227.465 601.278 237.842 624.141 247.173 647.433C174.817 647.576 102.461 647.433 30.1067 647.012C16.118 644.429 6.72299 636.435 1.92179 623.03C0.607887 614.666 0.327435 606.251 1.08044 597.786C3.37445 588.378 6.17897 579.122 9.49386 570.017C31.5333 515.952 53.4082 461.811 75.1185 407.612C79.1107 399.348 83.3174 391.211 87.7386 383.209C97.8086 369.282 111.13 360.59 127.702 357.123Z" fill="#2B3449"/>
<path opacity="0.989" fill-rule="evenodd" clip-rule="evenodd" d="M347.291 357.123C433.669 356.98 520.047 357.123 606.424 357.543C630.938 360.606 643.558 374.491 644.285 399.197C643.873 407.999 642.191 416.548 639.237 424.862C627.428 458.437 614.107 491.397 599.273 523.735C583.287 564.69 567.302 605.637 551.316 646.591C522.352 647.433 493.325 647.71 464.238 647.433C478.8 608.649 493.944 570.084 509.67 531.729C479.097 531.031 448.529 531.166 417.964 532.15C403.739 564.034 390.417 596.288 378 628.92C375.378 635.147 372.434 641.172 369.166 647.012C340.836 647.71 312.512 647.576 284.19 646.591C313.714 571.329 344.143 496.438 375.476 421.917C375.956 418.938 375.395 416.127 373.793 413.502C364.03 395.099 355.196 376.3 347.291 357.123ZM463.396 420.234C489.811 419.83 516.173 420.25 542.482 421.496C546.493 423.49 548.737 426.713 549.213 431.173C545.949 443.635 541.602 455.694 536.172 467.356C535.752 467.777 535.331 468.198 534.91 468.619C504.338 469.317 473.769 469.182 443.204 468.198C448.956 451.772 455.687 435.784 463.396 420.234Z" fill="#2B3449"/>
<path opacity="0.99" fill-rule="evenodd" clip-rule="evenodd" d="M669.526 357.123C757.587 356.98 845.644 357.123 933.708 357.543C961.438 361.532 973.074 377.377 968.623 405.087C960.067 432.721 949.693 459.648 937.494 485.869C932.404 491.524 926.371 495.866 919.405 498.912C909.3 502.909 898.927 505.997 888.275 508.168C901.779 515.093 908.509 526.176 908.467 541.406C905.043 577.06 900.559 612.545 895.006 647.853C866.114 648.552 837.231 648.417 808.348 647.433C814.829 614.144 820.578 580.771 825.595 547.297C824.506 540.17 820.72 535.255 814.237 532.571C801.373 531.62 788.472 531.199 775.535 531.309C764.037 531.452 752.539 531.586 741.04 531.729C736.421 539.993 732.354 548.542 728.841 557.395C716.922 587.41 705.003 617.417 693.084 647.433C664.203 648.274 635.317 648.552 606.426 648.274C629.069 588.613 652.626 529.289 677.098 470.302C732.089 470.285 787.057 469.721 842.001 468.619C849.624 467.407 855.934 463.898 860.932 458.1C864.347 450.098 867.435 441.961 870.186 433.697C871.751 427.706 869.648 423.642 863.876 421.496C861.95 420.806 859.989 420.242 857.987 419.813C809.189 419.535 760.391 419.249 711.593 418.971C706.801 418.828 702.034 418.408 697.291 417.709C687.561 397.69 678.306 377.495 669.526 357.123Z" fill="#2B3449"/>
<path opacity="0.99" fill-rule="evenodd" clip-rule="evenodd" d="M1077.58 357.123C1144.32 357.123 1211.07 357.123 1277.82 357.123C1270.3 377.689 1262.45 398.162 1254.26 418.551C1214.16 419.249 1174.05 419.67 1133.95 419.813C1127.25 421.732 1124.3 426.074 1125.11 432.856C1126.94 436.508 1129.18 439.874 1131.84 442.954C1150.05 459.758 1167.99 476.865 1185.69 494.284C1190.94 500.014 1195.99 505.905 1200.83 511.955C1210.38 524.325 1215.99 538.352 1217.66 554.029C1223.35 611.157 1197.69 642.435 1140.68 647.854C1073.65 648.274 1006.63 648.417 939.596 648.274C948.455 625.058 957.146 601.774 965.677 578.432C1016.44 578.575 1067.2 578.432 1117.96 578.011C1134 574.258 1136.65 565.986 1125.95 553.187C1106.75 535.096 1087.53 517.004 1068.32 498.912C1058.9 489.774 1049.79 480.374 1040.98 470.722C1017.87 442.314 1015.07 412.021 1032.56 379.843C1039.55 370.528 1048.66 364.217 1059.91 360.91C1065.86 359.353 1071.75 358.091 1077.58 357.123Z" fill="#FE000A"/>
<path opacity="0.991" fill-rule="evenodd" clip-rule="evenodd" d="M1304.74 357.964C1394.34 356.98 1484.09 356.845 1573.97 357.544C1600.08 363.476 1610.6 379.607 1605.52 405.929C1595.38 437.139 1583.6 467.71 1570.18 497.65C1555.05 519.882 1533.87 531.242 1506.66 531.73C1464.03 531.873 1421.4 532.293 1378.78 532.992C1369 553.213 1360.44 573.963 1353.12 595.261C1345.97 613.05 1338.27 630.586 1329.98 647.854C1301.37 648.274 1272.77 648.417 1244.16 648.274C1258.57 609.381 1273.58 570.673 1289.17 532.15C1297.52 511.315 1306.35 490.699 1315.68 470.302C1370.95 470.285 1426.19 469.721 1481.42 468.619C1487.25 467.601 1492.16 464.933 1496.14 460.625C1501.71 451.789 1505.63 442.247 1507.92 432.014C1507.36 424.719 1503.29 420.646 1495.72 419.813C1442.16 419.535 1388.6 419.249 1335.03 418.972C1324.11 398.961 1314.02 378.623 1304.74 357.964Z" fill="#FE000A"/>
<path opacity="0.989" fill-rule="evenodd" clip-rule="evenodd" d="M1630.34 357.123C1716.43 356.98 1802.54 357.123 1888.63 357.543C1913.58 360.194 1926.48 374.079 1927.33 399.197C1926.04 411.651 1923.09 423.717 1918.5 435.38C1906.86 466.363 1894.24 496.934 1880.64 527.101C1865.16 566.962 1849.59 606.798 1833.94 646.591C1805.06 647.433 1776.18 647.71 1747.28 647.433C1762.14 608.742 1777 570.034 1791.88 531.309C1761.59 531.166 1731.3 531.309 1701.01 531.729C1686.31 564.892 1672.43 598.417 1659.36 632.286C1657.32 637.36 1654.93 642.274 1652.21 647.012C1623.88 647.433 1595.57 647.576 1567.24 647.433C1596.98 571.111 1627.54 495.092 1658.94 419.392C1650.95 402.849 1642.96 386.297 1634.97 369.745C1632.94 365.697 1631.4 361.49 1630.34 357.123ZM1746.44 420.234C1771.97 420.091 1797.49 420.234 1823.01 420.654C1830.06 423.221 1832.73 428.127 1831 435.38C1827.84 446.395 1823.78 457.048 1818.8 467.356C1818.35 467.937 1817.8 468.358 1817.12 468.619C1786.55 469.182 1755.98 469.182 1725.41 468.619C1730.59 455.87 1735.78 443.105 1740.97 430.331C1742.59 426.806 1744.42 423.44 1746.44 420.234Z" fill="#FE000A"/>
<path opacity="0.988" fill-rule="evenodd" clip-rule="evenodd" d="M2016.51 357.123C2081.02 357.123 2145.52 357.123 2210.02 357.123C2203.3 378.429 2195.17 399.188 2185.62 419.392C2144.4 420.091 2103.17 420.511 2061.95 420.655C2049.63 424.559 2041.07 432.553 2036.29 444.637C2033.54 450.906 2031.3 457.36 2029.56 463.991C2013.7 501.622 1998.41 539.488 1983.7 577.59C2024.09 578.289 2064.47 578.709 2104.86 578.852C2116.28 601.278 2126.65 624.141 2135.99 647.433C2063.63 647.576 1991.27 647.433 1918.92 647.012C1904.93 644.429 1895.54 636.435 1890.73 623.03C1889.42 614.943 1889.14 606.815 1889.89 598.627C1892.01 588.891 1894.81 579.357 1898.31 570.017C1920.35 515.952 1942.22 461.811 1963.93 407.612C1969.17 393.037 1977.45 380.55 1988.75 370.166C1996.81 363.139 2006.07 358.789 2016.51 357.123Z" fill="#FE000A"/>
<path opacity="0.989" fill-rule="evenodd" clip-rule="evenodd" d="M2236.95 357.123C2337.07 356.845 2437.19 357.123 2537.31 357.965C2529.29 378.093 2521.44 398.288 2513.75 418.551C2460.74 419.249 2407.74 419.67 2354.73 419.813C2346.22 435.86 2339.21 452.555 2333.7 469.881C2375.2 469.881 2416.72 469.881 2458.22 469.881C2450.76 489.454 2443.47 509.086 2436.34 528.785C2394.28 528.642 2352.21 528.785 2310.14 529.205C2302.38 544.89 2295.65 561.013 2289.95 577.59C2338.47 578.154 2386.98 578.71 2435.5 579.273C2446.36 602.103 2456.73 625.1 2466.63 648.275C2369.04 648.275 2271.44 648.275 2173.85 648.275C2203.42 571.607 2233.98 495.311 2265.55 419.392C2255.08 399.012 2245.54 378.253 2236.95 357.123Z" fill="#FE000A"/>
</svg>
