<?xml version="1.0" encoding="UTF-8"?>
<!DOCTYPE svg PUBLIC "-//W3C//DTD SVG 1.1//EN" "http://www.w3.org/Graphics/SVG/1.1/DTD/svg11.dtd">
<svg xmlns="http://www.w3.org/2000/svg" version="1.1" width="3031px" height="2274px" style="shape-rendering:geometricPrecision; text-rendering:geometricPrecision; image-rendering:optimizeQuality; fill-rule:evenodd; clip-rule:evenodd" xmlns:xlink="http://www.w3.org/1999/xlink">
<g><path style="opacity:0.986" fill="#fe000a" d="M 1439.5,640.5 C 1580.18,637.169 1718.18,654.669 1853.5,693C 1980.08,729.793 2096.08,786.959 2201.5,864.5C 2163.58,868.771 2125.58,871.938 2087.5,874C 2011.33,829.747 1932.33,791.08 1850.5,758C 1710.72,704.459 1566.05,682.126 1416.5,691C 1273.3,699.028 1131.63,718.362 991.5,749C 896.055,769.111 801.721,793.445 708.5,822C 675.137,832.343 642.137,843.676 609.5,856C 636.803,868.984 664.136,881.984 691.5,895C 739.768,918.871 783.602,949.038 823,985.5C 823.667,986.167 823.667,986.833 823,987.5C 781.668,971.874 739.168,960.374 695.5,953C 578.693,931.588 461.36,927.921 343.5,942C 299.309,947.714 256.643,959.047 215.5,976C 172.719,995.429 136.219,1023.26 106,1059.5C 79.7682,1092.27 56.7682,1127.27 37,1164.5C 28.9221,1180.99 20.5888,1197.32 12,1213.5C 13.4448,1162.72 25.1115,1114.39 47,1068.5C 57.4813,1046.2 68.9813,1024.53 81.5,1003.5C 71.6951,992.551 62.8618,980.884 55,968.5C 43.2193,946.586 40.5526,923.586 47,899.5C 51.4744,882.912 56.6411,866.578 62.5,850.5C 74.007,857.085 86.007,862.919 98.5,868C 116.465,874.225 134.965,877.392 154,877.5C 198.69,874.635 242.857,868.135 286.5,858C 394.775,833.015 502.442,805.681 609.5,776C 763.645,735.838 919.312,702.838 1076.5,677C 1196.89,657.161 1317.89,644.994 1439.5,640.5 Z"/></g>
<g><path style="opacity:0.983" fill="#2b3449" d="M 2328.5,887.5 C 2443.86,883.942 2558.52,891.109 2672.5,909C 2794.84,928.885 2908.84,970.885 3014.5,1035C 2958.17,1035.67 2901.83,1035.67 2845.5,1035C 2720.64,984.692 2590.97,955.026 2456.5,946C 2358.46,939.772 2260.46,940.439 2162.5,948C 2122.13,950.837 2081.79,954.17 2041.5,958C 1936.86,968.96 1832.2,979.626 1727.5,990C 1620.74,1000.4 1513.74,1004.4 1406.5,1002C 1308.49,999.29 1211.49,987.957 1115.5,968C 1227.15,975.327 1338.81,975.327 1450.5,968C 1512.94,963.935 1575.27,958.602 1637.5,952C 1782.74,935.122 1928.07,919.122 2073.5,904C 2158.5,895.959 2243.5,890.459 2328.5,887.5 Z"/></g>
<g><path style="opacity:0.988" fill="#2b3449" d="M 158.5,1064.5 C 235.167,1064.5 311.833,1064.5 388.5,1064.5C 380.407,1089.78 370.74,1114.45 359.5,1138.5C 310.503,1139.33 261.503,1139.83 212.5,1140C 197.858,1144.64 187.691,1154.14 182,1168.5C 161.072,1221.12 140.238,1273.78 119.5,1326.5C 167.497,1327.33 215.497,1327.83 263.5,1328C 277.076,1354.65 289.409,1381.82 300.5,1409.5C 214.499,1409.67 128.499,1409.5 42.5,1409C 25.8733,1405.93 14.7066,1396.43 9,1380.5C 7.43833,1370.56 7.10499,1360.56 8,1350.5C 10.7266,1339.32 14.06,1328.32 18,1317.5C 44.1956,1253.25 70.1956,1188.91 96,1124.5C 100.745,1114.68 105.745,1105.01 111,1095.5C 122.969,1078.95 138.802,1068.62 158.5,1064.5 Z"/></g>
<g><path style="opacity:0.989" fill="#2b3449" d="M 419.5,1064.5 C 522.167,1064.33 624.834,1064.5 727.5,1065C 756.636,1068.64 771.636,1085.14 772.5,1114.5C 772.011,1124.96 770.011,1135.12 766.5,1145C 752.465,1184.9 736.631,1224.07 719,1262.5C 700,1311.17 681,1359.83 662,1408.5C 627.573,1409.5 593.073,1409.83 558.5,1409.5C 575.809,1363.41 593.809,1317.58 612.5,1272C 576.162,1271.17 539.829,1271.33 503.5,1272.5C 486.593,1310.39 470.759,1348.72 456,1387.5C 452.884,1394.9 449.384,1402.06 445.5,1409C 411.828,1409.83 378.162,1409.67 344.5,1408.5C 379.591,1319.06 415.758,1230.06 453,1141.5C 453.571,1137.96 452.904,1134.62 451,1131.5C 439.396,1109.63 428.896,1087.29 419.5,1064.5 Z M 557.5,1139.5 C 588.896,1139.02 620.229,1139.52 651.5,1141C 656.267,1143.37 658.934,1147.2 659.5,1152.5C 655.62,1167.31 650.454,1181.64 644,1195.5C 643.5,1196 643,1196.5 642.5,1197C 606.162,1197.83 569.829,1197.67 533.5,1196.5C 540.337,1176.98 548.337,1157.98 557.5,1139.5 Z"/></g>
<g><path style="opacity:0.99" fill="#2b3449" d="M 802.5,1064.5 C 907.167,1064.33 1011.83,1064.5 1116.5,1065C 1149.46,1069.74 1163.29,1088.57 1158,1121.5C 1147.83,1154.34 1135.5,1186.34 1121,1217.5C 1114.95,1224.22 1107.78,1229.38 1099.5,1233C 1087.49,1237.75 1075.16,1241.42 1062.5,1244C 1078.55,1252.23 1086.55,1265.4 1086.5,1283.5C 1082.43,1325.87 1077.1,1368.04 1070.5,1410C 1036.16,1410.83 1001.83,1410.67 967.5,1409.5C 975.204,1369.94 982.037,1330.28 988,1290.5C 986.705,1282.03 982.205,1276.19 974.5,1273C 959.21,1271.87 943.876,1271.37 928.5,1271.5C 914.833,1271.67 901.167,1271.83 887.5,1272C 882.009,1281.82 877.175,1291.98 873,1302.5C 858.833,1338.17 844.667,1373.83 830.5,1409.5C 796.173,1410.5 761.84,1410.83 727.5,1410.5C 754.413,1339.6 782.413,1269.1 811.5,1199C 876.86,1198.98 942.194,1198.31 1007.5,1197C 1016.56,1195.56 1024.06,1191.39 1030,1184.5C 1034.06,1174.99 1037.73,1165.32 1041,1155.5C 1042.86,1148.38 1040.36,1143.55 1033.5,1141C 1031.21,1140.18 1028.88,1139.51 1026.5,1139C 968.5,1138.67 910.5,1138.33 852.5,1138C 846.804,1137.83 841.138,1137.33 835.5,1136.5C 823.935,1112.71 812.935,1088.71 802.5,1064.5 Z"/></g>
<g><path style="opacity:0.99" fill="#fe000a" d="M 1287.5,1064.5 C 1366.83,1064.5 1446.17,1064.5 1525.5,1064.5C 1516.57,1088.94 1507.24,1113.27 1497.5,1137.5C 1449.84,1138.33 1402.17,1138.83 1354.5,1139C 1346.54,1141.28 1343.04,1146.44 1344,1154.5C 1346.17,1158.84 1348.84,1162.84 1352,1166.5C 1373.64,1186.47 1394.97,1206.8 1416,1227.5C 1422.24,1234.31 1428.24,1241.31 1434,1248.5C 1445.35,1263.2 1452.02,1279.87 1454,1298.5C 1460.76,1366.39 1430.26,1403.56 1362.5,1410C 1282.83,1410.5 1203.17,1410.67 1123.5,1410.5C 1134.03,1382.91 1144.36,1355.24 1154.5,1327.5C 1214.83,1327.67 1275.17,1327.5 1335.5,1327C 1354.56,1322.54 1357.72,1312.71 1345,1297.5C 1322.17,1276 1299.33,1254.5 1276.5,1233C 1265.3,1222.14 1254.47,1210.97 1244,1199.5C 1216.54,1165.74 1213.21,1129.74 1234,1091.5C 1242.3,1080.43 1253.13,1072.93 1266.5,1069C 1273.57,1067.15 1280.57,1065.65 1287.5,1064.5 Z"/></g>
<g><path style="opacity:0.991" fill="#fe000a" d="M 1557.5,1065.5 C 1664,1064.33 1770.67,1064.17 1877.5,1065C 1908.54,1072.05 1921.04,1091.22 1915,1122.5C 1902.95,1159.59 1888.95,1195.92 1873,1231.5C 1855.01,1257.92 1829.84,1271.42 1797.5,1272C 1746.83,1272.17 1696.16,1272.67 1645.5,1273.5C 1633.88,1297.53 1623.71,1322.19 1615,1347.5C 1606.51,1368.64 1597.35,1389.48 1587.5,1410C 1553.5,1410.5 1519.5,1410.67 1485.5,1410.5C 1502.63,1364.28 1520.47,1318.28 1539,1272.5C 1548.92,1247.74 1559.42,1223.24 1570.5,1199C 1636.2,1198.98 1701.86,1198.31 1767.5,1197C 1774.43,1195.79 1780.26,1192.62 1785,1187.5C 1791.61,1177 1796.28,1165.66 1799,1153.5C 1798.33,1144.83 1793.49,1139.99 1784.5,1139C 1720.83,1138.67 1657.17,1138.33 1593.5,1138C 1580.53,1114.22 1568.53,1090.05 1557.5,1065.5 Z"/></g>
<g><path style="opacity:0.989" fill="#fe000a" d="M 1944.5,1064.5 C 2046.83,1064.33 2149.17,1064.5 2251.5,1065C 2281.15,1068.15 2296.49,1084.65 2297.5,1114.5C 2295.96,1129.3 2292.46,1143.64 2287,1157.5C 2273.17,1194.32 2258.17,1230.65 2242,1266.5C 2223.6,1313.87 2205.1,1361.21 2186.5,1408.5C 2152.17,1409.5 2117.84,1409.83 2083.5,1409.5C 2101.16,1363.52 2118.82,1317.52 2136.5,1271.5C 2100.5,1271.33 2064.5,1271.5 2028.5,1272C 2011.03,1311.41 1994.53,1351.25 1979,1391.5C 1976.57,1397.53 1973.73,1403.37 1970.5,1409C 1936.83,1409.5 1903.17,1409.67 1869.5,1409.5C 1904.85,1318.8 1941.18,1228.46 1978.5,1138.5C 1969,1118.84 1959.5,1099.17 1950,1079.5C 1947.59,1074.69 1945.76,1069.69 1944.5,1064.5 Z M 2082.5,1139.5 C 2112.84,1139.33 2143.17,1139.5 2173.5,1140C 2181.89,1143.05 2185.06,1148.88 2183,1157.5C 2179.25,1170.59 2174.42,1183.25 2168.5,1195.5C 2167.97,1196.19 2167.31,1196.69 2166.5,1197C 2130.17,1197.67 2093.83,1197.67 2057.5,1197C 2063.66,1181.85 2069.83,1166.68 2076,1151.5C 2077.92,1147.31 2080.09,1143.31 2082.5,1139.5 Z"/></g>
<g><path style="opacity:0.988" fill="#fe000a" d="M 2403.5,1064.5 C 2480.17,1064.5 2556.83,1064.5 2633.5,1064.5C 2625.51,1089.82 2615.84,1114.49 2604.5,1138.5C 2555.5,1139.33 2506.5,1139.83 2457.5,1140C 2442.86,1144.64 2432.69,1154.14 2427,1168.5C 2423.74,1175.95 2421.07,1183.62 2419,1191.5C 2400.15,1236.22 2381.98,1281.22 2364.5,1326.5C 2412.5,1327.33 2460.5,1327.83 2508.5,1328C 2522.08,1354.65 2534.41,1381.82 2545.5,1409.5C 2459.5,1409.67 2373.5,1409.5 2287.5,1409C 2270.87,1405.93 2259.71,1396.43 2254,1380.5C 2252.44,1370.89 2252.11,1361.23 2253,1351.5C 2255.52,1339.93 2258.85,1328.6 2263,1317.5C 2289.2,1253.25 2315.2,1188.91 2341,1124.5C 2347.23,1107.18 2357.07,1092.34 2370.5,1080C 2380.08,1071.65 2391.08,1066.48 2403.5,1064.5 Z"/></g>
<g><path style="opacity:0.989" fill="#fe000a" d="M 2665.5,1064.5 C 2784.5,1064.17 2903.5,1064.5 3022.5,1065.5C 3012.97,1089.42 3003.64,1113.42 2994.5,1137.5C 2931.5,1138.33 2868.5,1138.83 2805.5,1139C 2795.38,1158.07 2787.05,1177.91 2780.5,1198.5C 2829.83,1198.5 2879.17,1198.5 2928.5,1198.5C 2919.64,1221.76 2910.97,1245.09 2902.5,1268.5C 2852.5,1268.33 2802.5,1268.5 2752.5,1269C 2743.27,1287.64 2735.27,1306.8 2728.5,1326.5C 2786.17,1327.17 2843.83,1327.83 2901.5,1328.5C 2914.4,1355.63 2926.73,1382.96 2938.5,1410.5C 2822.5,1410.5 2706.5,1410.5 2590.5,1410.5C 2625.65,1319.39 2661.98,1228.72 2699.5,1138.5C 2687.05,1114.28 2675.72,1089.61 2665.5,1064.5 Z"/></g>
</svg>
